<svg xmlns="http://www.w3.org/2000/svg" xmlns:xlink="http://www.w3.org/1999/xlink" viewBox="0 0 80 80" fill="#7A8FA6">
  <path d="M11.386719 16C8.3672128 16 6 18.678143 6 21.841797L6 58.154297C6 61.31795 8.3672128 63.996094 11.386719 63.996094L69.613281 63.996094C72.632787 63.996094 75 61.31795 75 58.154297L75 21.841797C75 18.678143 72.632787 16 69.613281 16L55.257812 16C48.115291 16.003 31.14237 16.005906 24 16.003906C22.6685 16.003906 12.721219 16 11.386719 16 z M 11.386719 18C11.768149 18 13.609543 18.001553 15 18.001953L15 61.996094L11.386719 61.996094C9.5602243 61.996094 8 60.338643 8 58.154297L8 21.841797C8 19.65745 9.5602243 18 11.386719 18 z M 55.257812 18L63 18L63 61.996094L17 61.996094L17 18.001953C20.101051 18.002776 23.259392 18.003906 24 18.003906C31.14363 18.005906 48.114334 18.002994 55.257812 18 z M 65 18L69.613281 18C71.439776 18 73 19.65745 73 21.841797L73 58.154297C73 60.338643 71.439776 61.996094 69.613281 61.996094L65 61.996094L65 18 z M 20 20.003906L19.199219 20.404297L19.041016 21.287109L19.652344 21.941406L20 22.003906L20.800781 21.601562L20.958984 20.71875L20.347656 20.064453L20 20.003906 z M 24 20.003906L23.199219 20.404297L23.041016 21.287109L23.652344 21.941406L24 22.003906L24.800781 21.601562L24.958984 20.71875L24.347656 20.064453L24 20.003906 z M 28 20.003906L27.199219 20.404297L27.041016 21.287109L27.652344 21.941406L28 22.003906L28.800781 21.601562L28.958984 20.71875L28.347656 20.064453L28 20.003906 z M 32 20.003906L31.199219 20.404297L31.041016 21.287109L31.652344 21.941406L32 22.003906L32.800781 21.601562L32.958984 20.71875L32.347656 20.064453L32 20.003906 z M 36 20.003906L35.199219 20.404297L35.041016 21.287109L35.652344 21.941406L36 22.003906L36.800781 21.601562L36.958984 20.71875L36.347656 20.064453L36 20.003906 z M 40 20.003906L39.199219 20.404297L39.041016 21.287109L39.652344 21.941406L40 22.003906L40.800781 21.601562L40.958984 20.71875L40.347656 20.064453L40 20.003906 z M 44 20.003906L43.199219 20.404297L43.041016 21.287109L43.652344 21.941406L44 22.003906L44.800781 21.601562L44.958984 20.71875L44.347656 20.064453L44 20.003906 z M 48 20.003906L47.199219 20.404297L47.041016 21.287109L47.652344 21.941406L48 22.003906L48.800781 21.601562L48.958984 20.71875L48.347656 20.064453L48 20.003906 z M 52 20.003906L51.199219 20.404297L51.041016 21.287109L51.652344 21.941406L52 22.003906L52.800781 21.601562L52.958984 20.71875L52.347656 20.064453L52 20.003906 z M 56 20.003906L55.199219 20.404297L55.041016 21.287109L55.652344 21.941406L56 22.003906L56.800781 21.601562L56.958984 20.71875L56.347656 20.064453L56 20.003906 z M 60 20.003906L59.199219 20.404297L59.041016 21.287109L59.652344 21.941406L60 22.003906L60.800781 21.601562L60.958984 20.71875L60.347656 20.064453L60 20.003906 z M 22.023438 28.009766 A 0.99359934 0.99359934 0 1 0 22.023438 29.996094L26.728516 29.996094C27.482434 29.996094 27.802622 30.13768 28.035156 30.339844C28.26769 30.542008 28.485303 30.922691 28.693359 31.601562L33.830078 51.712891 A 0.99359934 0.99359934 0 0 0 33.833984 51.728516C34.02857 52.44687 34.213201 53.238953 34.828125 53.923828C35.030738 54.14949 35.289122 54.325744 35.570312 54.480469C35.160893 55.088789 34.955078 55.795936 34.955078 56.5C34.955078 57.347222 35.234045 58.207881 35.833984 58.882812C36.433924 59.557744 37.371745 60 38.455078 60C39.538411 60 40.478186 59.557745 41.078125 58.882812C41.678064 58.207881 41.955078 57.347222 41.955078 56.5C41.955078 55.979597 41.836862 55.458995 41.617188 54.974609L44.294922 54.974609C44.074679 55.458995 43.955078 55.979597 43.955078 56.5C43.955078 57.347222 44.234045 58.207881 44.833984 58.882812C45.433924 59.557744 46.371745 60 47.455078 60C48.538411 60 49.478186 59.557745 50.078125 58.882812C50.678064 58.207881 50.955078 57.347222 50.955078 56.5C50.955078 55.652778 50.678064 54.792119 50.078125 54.117188C50.048192 54.083512 50.008164 54.057881 49.976562 54.025391 A 0.99359934 0.99359934 0 0 0 48.955078 52.988281L37.703125 52.988281C36.765329 52.988281 36.500466 52.811578 36.306641 52.595703C36.113144 52.380195 35.942968 51.91556 35.751953 51.210938C35.751953 51.210938 35.75 51.208984 35.75 51.208984L35.439453 49.994141L48.933594 49.994141 A 0.99359934 0.99359934 0 0 0 49.859375 49.359375L54.880859 36.359375 A 0.99359934 0.99359934 0 0 0 53.955078 35.007812L31.613281 35.007812L30.607422 31.064453 A 0.99359934 0.99359934 0 0 0 30.59375 31.019531C30.337804 30.184402 29.997357 29.41318 29.337891 28.839844C28.678425 28.266508 27.774597 28.009766 26.728516 28.009766L22.023438 28.009766 z M 11.984375 31.988281 A 1.0001 1.0001 0 0 0 11 33.003906L11 42.001953 A 1.0001 1.0001 0 1 0 13 42.001953L13 33.003906 A 1.0001 1.0001 0 0 0 11.984375 31.988281 z M 32.121094 36.996094L36.048828 36.996094L35.996094 37.285156L36.609375 37.939453L36.955078 38.001953L37.757812 37.599609L37.865234 36.996094L40.048828 36.996094L39.996094 37.285156L40.609375 37.939453L40.955078 38.001953L41.757812 37.599609L41.865234 36.996094L44.048828 36.996094L43.996094 37.285156L44.609375 37.939453L44.955078 38.001953L45.757812 37.599609L45.865234 36.996094L48.048828 36.996094L47.996094 37.285156L48.609375 37.939453L48.955078 38.001953L49.757812 37.599609L49.865234 36.996094L52.505859 36.996094L48.251953 48.007812L35.058594 48.007812 A 0.99359934 0.99359934 0 0 0 34.933594 48.013672L32.121094 36.996094 z M 69 38.001953 A 2 2 0 0 0 69 42.001953 A 2 2 0 0 0 69 38.001953 z M 36.955078 40.001953L36.154297 40.404297L35.996094 41.285156L36.609375 41.939453L36.955078 42.001953L37.757812 41.599609L37.914062 40.71875L37.302734 40.064453L36.955078 40.001953 z M 40.955078 40.001953L40.154297 40.404297L39.996094 41.285156L40.609375 41.939453L40.955078 42.001953L41.757812 41.599609L41.914062 40.71875L41.302734 40.064453L40.955078 40.001953 z M 44.976562 40.001953L44.173828 40.404297L44.017578 41.285156L44.628906 41.939453L44.976562 42.001953L45.777344 41.599609L45.935547 40.71875L45.322266 40.064453L44.976562 40.001953 z M 48.955078 40.001953L48.154297 40.404297L47.996094 41.285156L48.609375 41.939453L48.955078 42.001953L49.757812 41.599609L49.914062 40.71875L49.302734 40.064453L48.955078 40.001953 z M 36.955078 44.001953L36.154297 44.404297L35.996094 45.285156L36.609375 45.939453L36.955078 46.001953L37.757812 45.599609L37.914062 44.71875L37.302734 44.064453L36.955078 44.001953 z M 40.955078 44.001953L40.154297 44.404297L39.996094 45.285156L40.609375 45.939453L40.955078 46.001953L41.757812 45.599609L41.914062 44.71875L41.302734 44.064453L40.955078 44.001953 z M 44.996094 44.001953L44.195312 44.404297L44.037109 45.285156L44.648438 45.939453L44.996094 46.001953L45.796875 45.599609L45.955078 44.71875L45.341797 44.064453L44.996094 44.001953 z M 12 45.001953C11.448 45.001953 11 45.449953 11 46.001953C11 46.553953 11.448 47.001953 12 47.001953C12.552 47.001953 13 46.553953 13 46.001953C13 45.449953 12.552 45.001953 12 45.001953 z M 38.455078 55C39.038411 55 39.350591 55.182745 39.583984 55.445312C39.817378 55.707881 39.955078 56.097222 39.955078 56.5C39.955078 56.902778 39.817378 57.292119 39.583984 57.554688C39.350591 57.817256 39.038411 58 38.455078 58C37.871745 58 37.561519 57.817255 37.328125 57.554688C37.094731 57.292119 36.955078 56.902778 36.955078 56.5C36.955078 56.097222 37.094731 55.707881 37.328125 55.445312C37.561519 55.182744 37.871745 55 38.455078 55 z M 47.455078 55C48.038411 55 48.350591 55.182745 48.583984 55.445312C48.817378 55.707881 48.955078 56.097222 48.955078 56.5C48.955078 56.902778 48.817378 57.292119 48.583984 57.554688C48.350591 57.817256 48.038411 58 47.455078 58C46.871745 58 46.561519 57.817255 46.328125 57.554688C46.094731 57.292119 45.955078 56.902778 45.955078 56.5C45.955078 56.097222 46.094731 55.707881 46.328125 55.445312C46.561519 55.182744 46.871745 55 47.455078 55 z" fill="#7A8FA6" />
</svg>